<svg width="20" height="20" viewBox="0 0 20 20" fill="none" xmlns="http://www.w3.org/2000/svg">
<path fill-rule="evenodd" clip-rule="evenodd" d="M13.875 8.5C13.875 11.3995 11.5245 13.75 8.625 13.75C5.7255 13.75 3.375 11.3995 3.375 8.5C3.375 5.6005 5.7255 3.25 8.625 3.25C11.5245 3.25 13.875 5.6005 13.875 8.5ZM19.6556 19.5306C19.5149 19.6715 19.3241 19.7506 19.125 19.7506C18.9259 19.7506 18.7351 19.6715 18.5944 19.5306L13.9012 14.8366C10.5108 17.6572 5.50147 17.3124 2.52946 14.0538C-0.442553 10.7952 -0.326056 5.77538 2.79392 2.65816C5.9139 -0.459059 10.9338 -0.571119 14.1898 2.40377C17.4458 5.37866 17.7861 10.3883 14.9625 13.7762L19.6556 18.4694C19.7965 18.6101 19.8756 18.8009 19.8756 19C19.8756 19.1991 19.7965 19.3899 19.6556 19.5306ZM8.625 15.25C12.3529 15.25 15.375 12.2279 15.375 8.5C15.375 4.77208 12.3529 1.75 8.625 1.75C4.89708 1.75 1.875 4.77208 1.875 8.5C1.87913 12.2262 4.89879 15.2459 8.625 15.25Z" fill="#96664F"/>
</svg>
