<svg width="38" height="24" viewBox="0 0 38 24" fill="none" xmlns="http://www.w3.org/2000/svg">
<path fill-rule="evenodd" clip-rule="evenodd" d="M22.0238 19.875C20.5959 17.4066 18.3956 15.6366 15.8278 14.7975C18.4385 13.2433 19.6891 10.1364 18.8832 7.2069C18.0772 4.27741 15.4133 2.24745 12.375 2.24745C9.33667 2.24745 6.67279 4.27741 5.86682 7.2069C5.06085 10.1364 6.31145 13.2433 8.92219 14.7975C6.35438 15.6356 4.15406 17.4056 2.72625 19.875C2.5837 20.1074 2.57853 20.3989 2.71273 20.6363C2.84694 20.8736 3.09938 21.0194 3.37202 21.0171C3.64467 21.0147 3.89458 20.8646 4.02469 20.625C5.79094 17.5725 8.91281 15.75 12.375 15.75C15.8372 15.75 18.9591 17.5725 20.7253 20.625C20.8554 20.8646 21.1053 21.0147 21.378 21.0171C21.6506 21.0194 21.9031 20.8736 22.0373 20.6363C22.1715 20.3989 22.1663 20.1074 22.0238 19.875ZM7.125 9C7.125 6.1005 9.4755 3.75 12.375 3.75C15.2745 3.75 17.625 6.1005 17.625 9C17.625 11.8995 15.2745 14.25 12.375 14.25C9.47679 14.2469 7.1281 11.8982 7.125 9Z" fill="#96664F"/>
<path fill-rule="evenodd" clip-rule="evenodd" d="M36.6488 19.8756C35.2209 17.4072 33.0206 15.6372 30.4528 14.7981C33.0636 13.2439 34.3142 10.137 33.5082 7.20749C32.7022 4.27801 30.0383 2.24805 27 2.24805C23.9617 2.24805 21.2978 4.27801 20.4918 7.20749C19.6859 10.137 20.9365 13.2439 23.5472 14.7981C20.9794 15.6362 18.7791 17.4062 17.3513 19.8756C17.2087 20.108 17.2035 20.3995 17.3377 20.6369C17.4719 20.8742 17.7244 21.02 17.997 21.0177C18.2697 21.0153 18.5196 20.8652 18.6497 20.6256C20.4159 17.5731 23.5378 15.7506 27 15.7506C30.4622 15.7506 33.5841 17.5731 35.3503 20.6256C35.4804 20.8652 35.7303 21.0153 36.003 21.0177C36.2756 21.02 36.5281 20.8742 36.6623 20.6369C36.7965 20.3995 36.7913 20.108 36.6488 19.8756ZM21.75 9.0006C21.75 6.1011 24.1005 3.7506 27 3.7506C29.8995 3.7506 32.25 6.1011 32.25 9.0006C32.25 11.9001 29.8995 14.2506 27 14.2506C24.1018 14.2475 21.7531 11.8988 21.75 9.0006Z" fill="#96664F"/>
</svg>
