<svg width="17" height="22" viewBox="0 0 17 22" fill="none" xmlns="http://www.w3.org/2000/svg">
<path fill-rule="evenodd" clip-rule="evenodd" d="M8.375 5C6.30393 5 4.625 6.67893 4.625 8.75C4.625 10.8211 6.30393 12.5 8.375 12.5C10.4461 12.5 12.125 10.8211 12.125 8.75C12.125 6.67893 10.4461 5 8.375 5ZM8.375 11C7.13236 11 6.125 9.99264 6.125 8.75C6.125 7.50736 7.13236 6.5 8.375 6.5C9.61764 6.5 10.625 7.50736 10.625 8.75C10.625 9.99264 9.61764 11 8.375 11ZM8.375 0.5C3.82079 0.505166 0.130167 4.19579 0.125 8.75C0.125 11.6938 1.48531 14.8138 4.0625 17.7734C5.22052 19.1108 6.52386 20.3151 7.94844 21.3641C8.20677 21.545 8.55073 21.545 8.80906 21.3641C10.231 20.3147 11.5318 19.1104 12.6875 17.7734C15.2609 14.8138 16.625 11.6938 16.625 8.75C16.6198 4.19579 12.9292 0.505166 8.375 0.5ZM8.375 19.8125C6.82531 18.5938 1.625 14.1172 1.625 8.75C1.625 5.02208 4.64708 2 8.375 2C12.1029 2 15.125 5.02208 15.125 8.75C15.125 14.1153 9.92469 18.5938 8.375 19.8125Z" fill="#96664F"/>
</svg>
